<svg width="21" height="16" viewBox="0 0 21 16" fill="none" xmlns="http://www.w3.org/2000/svg">
<path d="M18.8926 0.208738L11.4998 5.94641V1.01373C11.4997 0.824606 11.4475 0.639255 11.3491 0.478629C11.2506 0.318002 11.1097 0.188505 10.9425 0.104774C10.7752 0.0210425 10.5882 -0.0135852 10.4025 0.00480471C10.2168 0.0231946 10.0399 0.0938686 9.89182 0.208839L0.891577 7.19425C0.769782 7.28899 0.671118 7.41086 0.603217 7.55044C0.535316 7.69002 0.5 7.84356 0.5 7.9992C0.5 8.15483 0.535316 8.30838 0.603217 8.44796C0.671118 8.58753 0.769782 8.70941 0.891577 8.80414L9.89182 15.7907C10.04 15.9053 10.2169 15.9757 10.4024 15.994C10.588 16.0122 10.7749 15.9775 10.942 15.8938C11.1092 15.8101 11.25 15.6808 11.3485 15.5204C11.4471 15.3599 11.4994 15.1748 11.4998 14.9858V10.0524L18.8916 15.7908C19.0397 15.9059 19.2166 15.9767 19.4024 15.9952C19.5881 16.0136 19.7753 15.979 19.9426 15.8953C20.11 15.8115 20.2509 15.6819 20.3494 15.5212C20.4479 15.3605 20.5001 15.175 20.5 14.9858V1.01373C20.4995 0.824843 20.4471 0.63983 20.3486 0.479511C20.2501 0.319192 20.1094 0.189932 19.9423 0.106276C19.7753 0.0226202 19.5885 -0.0121112 19.403 0.00599059C19.2176 0.0240924 19.0408 0.094309 18.8926 0.208738Z" fill="#ACB8C2"/>
</svg>
