<svg width="27" height="24" viewBox="0 0 27 24" fill="none" xmlns="http://www.w3.org/2000/svg">
<path fill-rule="evenodd" clip-rule="evenodd" d="M2.09624 13.1918L12.7629 7.85848C12.9839 7.74729 13.1697 7.57688 13.2995 7.36627C13.4293 7.15566 13.498 6.91314 13.498 6.66574C13.498 6.41835 13.4293 6.17582 13.2995 5.96522C13.1697 5.75461 12.9839 5.5842 12.7629 5.47301L2.09624 0.139673C1.89288 0.038542 1.66708 -0.00904346 1.4402 0.00141716C1.21333 0.0118778 0.992868 0.0800384 0.799677 0.199453C0.606486 0.318868 0.446949 0.48559 0.336154 0.68385C0.225359 0.88211 0.166968 1.10536 0.166504 1.33247V11.9991C0.166954 12.2263 0.225338 12.4495 0.336133 12.6478C0.446929 12.846 0.606472 13.0128 0.799671 13.1322C0.99287 13.2516 1.21334 13.3197 1.44022 13.3302C1.6671 13.3406 1.89289 13.293 2.09624 13.1918ZM17.4998 7.99914H25.4998C25.8534 7.99914 26.1926 7.85866 26.4426 7.60861C26.6927 7.35857 26.8332 7.01943 26.8332 6.66581C26.8332 6.31218 26.6927 5.97305 26.4426 5.723C26.1926 5.47295 25.8534 5.33247 25.4998 5.33247H17.4998C17.1462 5.33247 16.8071 5.47295 16.557 5.723C16.307 5.97305 16.1665 6.31218 16.1665 6.66581C16.1665 7.01943 16.307 7.35857 16.557 7.60861C16.8071 7.85866 17.1462 7.99914 17.4998 7.99914ZM10.833 10.6658H25.4997C25.8533 10.6658 26.1924 10.8063 26.4425 11.0563C26.6925 11.3064 26.833 11.6455 26.833 11.9991C26.833 12.3528 26.6925 12.6919 26.4425 12.9419C26.1924 13.192 25.8533 13.3325 25.4997 13.3325H10.833C10.4794 13.3325 10.1402 13.192 9.8902 12.9419C9.64015 12.6919 9.49967 12.3528 9.49967 11.9991C9.49967 11.6455 9.64015 11.3064 9.8902 11.0563C10.1402 10.8063 10.4794 10.6658 10.833 10.6658ZM25.4998 15.9991H1.49984C1.14622 15.9991 0.807077 16.1396 0.557028 16.3897C0.30698 16.6397 0.166504 16.9789 0.166504 17.3325C0.166504 17.6861 0.30698 18.0252 0.557028 18.2753C0.807077 18.5253 1.14622 18.6658 1.49984 18.6658H25.4998C25.8535 18.6658 26.1926 18.5253 26.4426 18.2753C26.6927 18.0252 26.8332 17.6861 26.8332 17.3325C26.8332 16.9789 26.6927 16.6397 26.4426 16.3897C26.1926 16.1396 25.8535 15.9991 25.4998 15.9991ZM1.49984 21.3325H25.4998C25.8535 21.3325 26.1926 21.473 26.4426 21.723C26.6927 21.973 26.8332 22.3122 26.8332 22.6658C26.8332 23.0194 26.6927 23.3586 26.4426 23.6086C26.1926 23.8587 25.8535 23.9992 25.4998 23.9992H1.49984C1.14622 23.9992 0.807077 23.8587 0.557028 23.6086C0.30698 23.3586 0.166504 23.0194 0.166504 22.6658C0.166504 22.3122 0.30698 21.973 0.557028 21.723C0.807077 21.473 1.14622 21.3325 1.49984 21.3325Z" fill="#656F77"/>
</svg>
